# xmcd
#
# Track frame offsets:
#	182
#	16407
#	33082
#	46222
#	63292
#	81540
#	100325
#	122475
#	135935
#	150567
#	169782
#	189705
#	201355
#
# Disc length: 2985 seconds
#
# Revision: 0
# Processed by: cddbd v1.5.2PL0 Copyright (c) Steve Scherf et al.
# Submitted via: EasyCDDAExtractor 16.0.0.1
#
DISCID=a50ba70d
DTITLE=Georges L. Jouin - Breton Connection's
DYEAR=1993
DGENRE=Blues
TTITLE0=Erru On Skuizh
TTITLE1=Georges Marin
TTITLE2=Loeiza
TTITLE3=Pauvre de Nous
TTITLE4=N'On Ket Ganet Ba Memphis
TTITLE5=Oublie Parfois
TTITLE6=Mon Papa
TTITLE7=O Che Yeyey
TTITLE8=Ginette
TTITLE9=Pas Trouvé Mieux
TTITLE10=Flora
TTITLE11=An Droch-Aod
TTITLE12=Tuchant An Tren Noz
EXTD=
EXTT0=
EXTT1=
EXTT2=
EXTT3=
EXTT4=
EXTT5=
EXTT6=
EXTT7=
EXTT8=
EXTT9=
EXTT10=
EXTT11=
EXTT12=
PLAYORDER=
